<svg width="280" height="280" viewBox="0 0 280 280" fill="none" xmlns="http://www.w3.org/2000/svg">
<path opacity="0.05" d="M140 0C62.668 0 0 62.6679 0 140C0 217.332 62.668 280 140 280C217.332 280 280 217.332 280 140C280 62.6679 217.332 0 140 0Z" fill="#DAFC5A"/>
<path opacity="0.1" d="M139.5 60C95.0341 60 59 96.0341 59 140.5C59 184.966 95.0341 221 139.5 221C183.966 221 220 184.966 220 140.5C220 96.0341 183.966 60 139.5 60Z" fill="#DAFC5A"/>
<path d="M140 106C121.221 106 106 121.22 106 140C106 158.78 121.221 174 140 174C158.78 174 174 158.78 174 140C174 121.22 158.78 106 140 106Z" fill="white"/>
<path fill-rule="evenodd" clip-rule="evenodd" d="M139.999 128.333C133.556 128.333 128.332 133.557 128.332 140C128.332 146.443 133.556 151.667 139.999 151.667C146.442 151.667 151.666 146.443 151.666 140C151.666 133.557 146.442 128.333 139.999 128.333ZM124.999 140C124.999 131.716 131.715 125 139.999 125C148.283 125 154.999 131.716 154.999 140C154.999 148.284 148.283 155 139.999 155C131.715 155 124.999 148.284 124.999 140Z" fill="#1D191F"/>
<path fill-rule="evenodd" clip-rule="evenodd" d="M140.001 131.668C140.921 131.668 141.667 132.414 141.667 133.335V140.467L145.528 141.753C146.401 142.045 146.873 142.988 146.582 143.862C146.291 144.735 145.347 145.207 144.474 144.916L139.474 143.249C138.793 143.022 138.334 142.385 138.334 141.668V133.335C138.334 132.414 139.08 131.668 140.001 131.668Z" fill="#1D191F"/>
</svg>
