<svg width="18" height="18" viewBox="0 0 1748 1701" fill="none" xmlns="http://www.w3.org/2000/svg">
    <path fill-rule="evenodd" clip-rule="evenodd"
        d="M0 833L6 764L10 754L13 719L17 717V703H20V686H23L27 659H30V649L34 648L37 628H41L44 604H47L48 594H51L55 577H58V570H61V560H64L65 553H68L71 536H75L78 522H81L88 502L92 501V495H95L102 471L109 467V460H112V454H116V448L122 443L123 437H126V430L133 426V419H136V413H140V406L146 403V399H150V392L157 389V382L163 379L164 372L170 368L171 362L177 358V352H181L191 334L201 327V321H205L211 310H215L218 300L225 297L228 290H232L239 276L246 273V269H249L252 263H256V259L269 249V245L280 239V235H283L300 215H304V211L314 205L315 201L327 194V191H331L336 184L344 181L345 177L388 146L454 106L521 73L605 41L678 21L755 7L833 0H915L992 7L997 10H1012L1035 14L1038 17L1065 20L1109 31L1110 34L1130 37L1134 41H1142L1144 44H1151L1208 65L1209 68H1215L1273 95L1335 130L1394 170L1451 216L1514 277L1554 323L1602 388L1637 445L1671 512L1701 587L1723 661L1736 723L1737 731H1731V728H1707L1703 727V724L1649 721V717L1594 714V711L1567 710V707L1516 704L1512 703V700L1458 697V693L1403 690V687H1379L1376 683L1322 680L1321 676L1267 673L1266 670L1239 669V666L1185 663L1184 659L1130 656V653H1109L1103 652V649H1075V646H1051L1048 642H1021V639H991L990 635H969L966 639L932 642V646H926V649H919V652L905 656V659H898L895 666H888L885 673H881L864 693H861V697H857V703L851 707L850 714H847V720L840 724L837 744H833V755H830V785H827V1021H830V1048H833V1062H836L837 1072H840V1082H844L847 1095L851 1096L854 1106L864 1113V1119L874 1126V1130L884 1134L892 1143L898 1144L902 1150H908V1154L922 1157V1160L929 1161V1164L942 1168V1171L956 1174V1177L963 1178V1181H970V1184L976 1185V1188L990 1191V1194L997 1195V1198H1004V1201L1011 1202V1205L1024 1209V1212L1038 1215V1218L1045 1219V1222L1058 1226V1229L1072 1232V1235L1079 1236V1239H1086V1242L1093 1243V1246H1099V1249H1106V1253L1120 1256V1259L1127 1260V1263L1140 1267V1270L1154 1273V1276L1161 1277V1280H1168V1283L1175 1284V1287L1188 1290V1293L1195 1294V1297H1202V1300L1209 1301V1304H1215V1307L1222 1308V1311L1236 1314V1317L1243 1318V1321L1256 1325V1328L1270 1331V1334L1277 1335V1338L1297 1345V1348H1304V1352L1318 1355V1358L1325 1359V1362L1338 1366V1369L1352 1372V1375L1359 1376V1379H1366V1382L1373 1383V1386H1379V1389H1386V1393L1400 1396V1399L1407 1400V1403L1420 1407V1410L1434 1413V1416L1441 1417V1420H1448V1423L1454 1424V1427L1468 1430V1433L1475 1434V1437H1482V1440L1489 1441V1444H1495V1447H1502V1451H1509V1454L1523 1458L1514 1471L1450 1533L1360 1602L1303 1637L1249 1665L1161 1701H1154V1697H1144V1694H1137V1690H1130V1687H1120V1684H1113V1680H1103V1677H1096V1673H1086V1670L1072 1667V1663H1062V1660H1055V1656H1045V1653H1038V1649H1028V1646L1014 1643V1639H1004V1636H997L996 1632H987V1629H980V1626L970 1625V1622L956 1619V1615H946V1612H939L938 1608H929V1605L915 1602V1598H905L904 1595H898L897 1591H887V1588H881V1585L857 1578L856 1574H847L846 1571H840L839 1567H829V1564L813 1560V1557H805V1554H799L798 1550H788V1547L772 1543V1540H764V1537H757L755 1533H747V1530H741L740 1527L730 1526V1523H723V1520L699 1513L697 1509H689V1506H682V1503L672 1502V1499H665V1496L655 1495V1492L631 1485V1482H624V1479L614 1478V1475H607V1472H598L597 1468H590V1465L574 1462L573 1458H566V1455H557L556 1451H549V1448H540L539 1445L532 1444V1441L516 1438L515 1434H508V1431H499L498 1428L491 1427V1424H482L481 1421H475L474 1417L458 1414L457 1410H450V1407H440V1404L433 1403V1400L416 1397V1393H409V1390H399V1387H393L392 1383H382V1380H376L375 1376H365V1373H358V1369H351V1366H341V1363H334V1359H324V1356H317V1352H307V1349L294 1346L293 1342H283V1339H276V1335H266V1332H259V1329L249 1328V1325L235 1322V1318H225V1315H218V1311H208V1308H201V1305L191 1304V1301L177 1298V1294H167V1291H160V1288L133 1280V1277L119 1274V1270H109V1267H102V1264L92 1263L83 1249L60 1196L30 1106L9 1007L0 915V833ZM403 727L375 728L373 731H361V734H349L348 738H338V741H331V745L311 752L307 758H301L297 765H291L280 778L274 779L267 789H263L260 799H256V803L250 806L249 812L243 816L242 823L236 827L232 840H229L222 864H219V877H216L215 891H212V925H209V932H212V966H215L216 980H219V993H222V1000H225L229 1017H232L233 1024H236V1031L243 1035V1041L249 1045L250 1051H253L256 1058H260V1062L280 1079V1082L287 1085V1089L297 1092L301 1099H307L311 1106L325 1109V1113L352 1120V1123H362V1126H376L379 1130H447L450 1126H464V1123H475V1120L485 1119V1116H495V1113H501L502 1109L515 1106L519 1099H525L529 1092H536L539 1085H543V1082H546V1079H549L553 1072H557L560 1065L573 1055V1051H577V1045L583 1041L584 1034L590 1031V1024H594L601 1000H604V993H607V983L611 980V966H614V932H618V925L614 922V891H611V877H608L607 864H604V857H601L600 847H597L594 833H590V827L584 823L583 816L577 812V806L570 803V799L563 795V789H559L553 779L546 778L543 772L536 769V765H530L525 758H519L515 752L509 751V748L495 745V741H488V738H478V734H465V731H454L451 728L423 727V724H403V727ZM1748 915L1743 977L1734 1036L1718 1106L1703 1155L1681 1213L1650 1279L1618 1335L1588 1380H1581L1580 1376L1567 1373V1369L1546 1363V1359H1539V1356H1533L1532 1352L1519 1349V1346H1513L1512 1342H1505V1339H1499L1498 1335L1479 1329L1478 1325L1464 1322V1318L1451 1315V1311L1437 1308V1305H1431L1430 1301H1423V1298H1417L1416 1294H1410V1291L1397 1288L1396 1284L1383 1281L1382 1277L1369 1274V1270L1348 1264V1260H1341V1257H1335L1334 1253L1321 1250V1247H1315L1314 1243H1307V1240H1301L1300 1236H1293V1233L1281 1230L1280 1226L1266 1223V1219L1253 1216V1212L1239 1209V1206H1233L1232 1202H1225V1199H1219L1218 1195L1205 1192V1189H1199L1198 1185H1191V1182H1184V1178H1177V1175H1171V1171L1150 1165V1161H1143V1158H1137L1136 1154H1133V754L1175 758V761H1202V764H1229L1230 768L1284 771V775L1339 778V781L1366 782V785L1420 788L1421 792L1475 795V798L1503 799V802L1557 805V809L1612 812V816L1693 822L1694 826L1747 829L1748 833V915ZM962 737H1011V740H1031V1103L1021 1100L1020 1096H1014V1093L1001 1090L1000 1086L986 1083V1079L973 1076V1072H966V1069L953 1066L949 1059H942V1055H939L938 1049L932 1045V1038L928 1035V771H932V761L945 751V747H949L952 741L962 740V737ZM410 823H416V826L448 829L451 833H458V836H464L465 839L471 840V843H475L478 850L488 853L489 860L502 871V877L506 878V884H509V891H512L513 904H516V953H513L512 963H509V973H506L499 990H495L488 1003L482 1004L475 1014H468L464 1021L448 1025V1028H437V1031H389V1028H379V1025L362 1021L358 1014H351L344 1004L338 1003V997H334L331 990H327L320 973H317L314 953H310V905L314 904V892L317 891L321 877H324V871L331 867L334 860H338V853L348 850V846L355 843V840L368 836V833H375V830L386 829L389 826H410V823Z"
        fill="currentColor" />
</svg>
