<svg width="32" height="32" viewBox="0 0 32 32" fill="none" xmlns="http://www.w3.org/2000/svg">
<path d="M16.0001 22.667C16.3779 22.667 16.6945 22.5392 16.9501 22.2837C17.2056 22.0281 17.3334 21.7114 17.3334 21.3337C17.3334 20.9559 17.2056 20.6392 16.9501 20.3837C16.6945 20.1281 16.3779 20.0003 16.0001 20.0003C15.6223 20.0003 15.3056 20.1281 15.0501 20.3837C14.7945 20.6392 14.6667 20.9559 14.6667 21.3337C14.6667 21.7114 14.7945 22.0281 15.0501 22.2837C15.3056 22.5392 15.6223 22.667 16.0001 22.667ZM16.0001 17.3337C16.3779 17.3337 16.6945 17.2059 16.9501 16.9503C17.2056 16.6948 17.3334 16.3781 17.3334 16.0003V10.667C17.3334 10.2892 17.2056 9.97255 16.9501 9.71699C16.6945 9.46144 16.3779 9.33366 16.0001 9.33366C15.6223 9.33366 15.3056 9.46144 15.0501 9.71699C14.7945 9.97255 14.6667 10.2892 14.6667 10.667V16.0003C14.6667 16.3781 14.7945 16.6948 15.0501 16.9503C15.3056 17.2059 15.6223 17.3337 16.0001 17.3337ZM16.0001 29.3337C14.1556 29.3337 12.4223 28.9837 10.8001 28.2837C9.17786 27.5837 7.76675 26.6337 6.56675 25.4337C5.36675 24.2337 4.41675 22.8225 3.71675 21.2003C3.01675 19.5781 2.66675 17.8448 2.66675 16.0003C2.66675 14.1559 3.01675 12.4225 3.71675 10.8003C4.41675 9.1781 5.36675 7.76699 6.56675 6.56699C7.76675 5.36699 9.17786 4.41699 10.8001 3.71699C12.4223 3.01699 14.1556 2.66699 16.0001 2.66699C17.8445 2.66699 19.5779 3.01699 21.2001 3.71699C22.8223 4.41699 24.2334 5.36699 25.4334 6.56699C26.6334 7.76699 27.5834 9.1781 28.2834 10.8003C28.9834 12.4225 29.3334 14.1559 29.3334 16.0003C29.3334 17.8448 28.9834 19.5781 28.2834 21.2003C27.5834 22.8225 26.6334 24.2337 25.4334 25.4337C24.2334 26.6337 22.8223 27.5837 21.2001 28.2837C19.5779 28.9837 17.8445 29.3337 16.0001 29.3337ZM16.0001 26.667C18.9779 26.667 21.5001 25.6337 23.5667 23.567C25.6334 21.5003 26.6667 18.9781 26.6667 16.0003C26.6667 13.0225 25.6334 10.5003 23.5667 8.43366C21.5001 6.36699 18.9779 5.33366 16.0001 5.33366C13.0223 5.33366 10.5001 6.36699 8.43342 8.43366C6.36675 10.5003 5.33341 13.0225 5.33341 16.0003C5.33341 18.9781 6.36675 21.5003 8.43342 23.567C10.5001 25.6337 13.0223 26.667 16.0001 26.667Z" fill="#FC6D5B"/>
</svg>
