<svg width="40" height="40" viewBox="0 0 40 40" fill="none" xmlns="http://www.w3.org/2000/svg">
<circle cx="20" cy="20" r="20" fill="#DAFC5A"/>
<rect width="24" height="24" transform="translate(8 8)" fill="#DAFC5A"/>
<path fill-rule="evenodd" clip-rule="evenodd" d="M17.4415 13C17.0111 13 16.6289 13.2754 16.4928 13.6838L16.4045 13.9487C15.9962 15.1737 14.8498 16 13.5585 16H13C11.8954 16 11 16.8954 11 18V25C11 26.1046 11.8954 27 13 27H27C28.1046 27 29 26.1046 29 25V18C29 16.8954 28.1046 16 27 16H26.4415C25.1502 16 24.0038 15.1737 23.5955 13.9487L23.5072 13.6838C23.3711 13.2754 22.9889 13 22.5585 13H17.4415ZM14.5955 13.0513C15.0038 11.8263 16.1502 11 17.4415 11H22.5585C23.8498 11 24.9962 11.8263 25.4045 13.0513L25.4928 13.3162C25.629 13.7246 26.0111 14 26.4415 14H27C29.2091 14 31 15.7909 31 18V25C31 27.2091 29.2091 29 27 29H13C10.7909 29 9 27.2091 9 25V18C9 15.7909 10.7909 14 13 14H13.5585C13.9889 14 14.3711 13.7246 14.5072 13.3162L14.5955 13.0513Z" fill="#111111"/>
<path fill-rule="evenodd" clip-rule="evenodd" d="M20 19C18.8954 19 18 19.8954 18 21C18 22.1046 18.8954 23 20 23C21.1046 23 22 22.1046 22 21C22 19.8954 21.1046 19 20 19ZM16 21C16 18.7909 17.7909 17 20 17C22.2091 17 24 18.7909 24 21C24 23.2091 22.2091 25 20 25C17.7909 25 16 23.2091 16 21Z" fill="#111111"/>
</svg>
