<svg width="25" height="24" viewBox="0 0 25 24" fill="none" xmlns="http://www.w3.org/2000/svg">
<path d="M15.5 21C13.5333 21 11.7833 20.4417 10.25 19.325C8.71667 18.2083 7.63333 16.7667 7 15H3.5V13H6.55C6.51667 12.8167 6.5 12.65 6.5 12.5V11.5C6.5 11.35 6.51667 11.1833 6.55 11H3.5V9H7C7.63333 7.23333 8.71667 5.79167 10.25 4.675C11.7833 3.55833 13.5333 3 15.5 3C16.65 3 17.7375 3.2 18.7625 3.6C19.7875 4 20.7 4.56667 21.5 5.3L19.75 7.05C19.1667 6.56667 18.5125 6.1875 17.7875 5.9125C17.0625 5.6375 16.3 5.5 15.5 5.5C14.25 5.5 13.1125 5.82083 12.0875 6.4625C11.0625 7.10417 10.2833 7.95 9.75 9H15.5V11H9.1C9.06667 11.1833 9.04167 11.35 9.025 11.5C9.00833 11.65 9 11.8167 9 12C9 12.1833 9.00833 12.35 9.025 12.5C9.04167 12.65 9.06667 12.8167 9.1 13H15.5V15H9.75C10.2833 16.05 11.0625 16.8958 12.0875 17.5375C13.1125 18.1792 14.25 18.5 15.5 18.5C16.3 18.5 17.0708 18.3625 17.8125 18.0875C18.5542 17.8125 19.2 17.4333 19.75 16.95L21.5 18.7C20.7 19.4333 19.7875 20 18.7625 20.4C17.7375 20.8 16.65 21 15.5 21Z" fill="white"/>
</svg>
