<svg width="24" height="24" viewBox="0 0 24 24" fill="currentColor" xmlns="http://www.w3.org/2000/svg">
    <path fill-rule="evenodd" clip-rule="evenodd"
          d="M6.32412 12.0751L11.7512 3.02996C12.9933 0.959823 16.1747 2.27762 15.5892 4.61972L14.3735 9.48269H15.3704C17.1193 9.48269 18.1995 11.3906 17.2997 12.8903L11.8727 21.9354C10.6306 24.0055 7.44908 22.6879 8.03463 20.3457L9.25038 15.4827H8.25348C6.50456 15.4827 5.42431 13.5748 6.32412 12.0751ZM10.5312 13.4827C11.1817 13.4827 11.6591 14.0941 11.5013 14.7252L9.97492 20.8307C9.94704 20.9423 10.0985 21.005 10.1577 20.9064L15.5848 11.8613C15.6847 11.6947 15.5647 11.4827 15.3704 11.4827H13.0927C12.4421 11.4827 11.9648 10.8713 12.1226 10.2402L13.6489 4.13465C13.6768 4.02312 13.5253 3.96037 13.4662 4.05895L8.0391 13.1041C7.93912 13.2707 8.05915 13.4827 8.25348 13.4827H10.5312Z"/>
</svg>
