<svg width="25" height="24" viewBox="0 0 25 24" fill="none" xmlns="http://www.w3.org/2000/svg">
<mask id="mask0_2761_2550" style="mask-type:alpha" maskUnits="userSpaceOnUse" x="0" y="0" width="25" height="24">
<rect x="0.5" width="24" height="24" fill="#D9D9D9"/>
</mask>
<g mask="url(#mask0_2761_2550)">
<path d="M5.5 21C4.95 21 4.47917 20.8042 4.0875 20.4125C3.69583 20.0208 3.5 19.55 3.5 19V4C3.5 3.71667 3.59583 3.47917 3.7875 3.2875C3.97917 3.09583 4.21667 3 4.5 3C4.78333 3 5.02083 3.09583 5.2125 3.2875C5.40417 3.47917 5.5 3.71667 5.5 4V19H20.5C20.7833 19 21.0208 19.0958 21.2125 19.2875C21.4042 19.4792 21.5 19.7167 21.5 20C21.5 20.2833 21.4042 20.5208 21.2125 20.7125C21.0208 20.9042 20.7833 21 20.5 21H5.5ZM7.5 18C7.21667 18 6.97917 17.9042 6.7875 17.7125C6.59583 17.5208 6.5 17.2833 6.5 17V10C6.5 9.71667 6.59583 9.47917 6.7875 9.2875C6.97917 9.09583 7.21667 9 7.5 9H9.5C9.78333 9 10.0208 9.09583 10.2125 9.2875C10.4042 9.47917 10.5 9.71667 10.5 10V17C10.5 17.2833 10.4042 17.5208 10.2125 17.7125C10.0208 17.9042 9.78333 18 9.5 18H7.5ZM12.5 18C12.2167 18 11.9792 17.9042 11.7875 17.7125C11.5958 17.5208 11.5 17.2833 11.5 17V5C11.5 4.71667 11.5958 4.47917 11.7875 4.2875C11.9792 4.09583 12.2167 4 12.5 4H14.5C14.7833 4 15.0208 4.09583 15.2125 4.2875C15.4042 4.47917 15.5 4.71667 15.5 5V17C15.5 17.2833 15.4042 17.5208 15.2125 17.7125C15.0208 17.9042 14.7833 18 14.5 18H12.5ZM17.5 18C17.2167 18 16.9792 17.9042 16.7875 17.7125C16.5958 17.5208 16.5 17.2833 16.5 17V14C16.5 13.7167 16.5958 13.4792 16.7875 13.2875C16.9792 13.0958 17.2167 13 17.5 13H19.5C19.7833 13 20.0208 13.0958 20.2125 13.2875C20.4042 13.4792 20.5 13.7167 20.5 14V17C20.5 17.2833 20.4042 17.5208 20.2125 17.7125C20.0208 17.9042 19.7833 18 19.5 18H17.5Z" fill="white"/>
</g>
</svg>
