<svg width="32" height="32" viewBox="0 0 32 32" fill="none" xmlns="http://www.w3.org/2000/svg">
<path d="M3.63338 28C3.38893 28 3.16671 27.9389 2.96671 27.8167C2.76671 27.6944 2.61116 27.5333 2.50005 27.3333C2.38893 27.1333 2.32782 26.9167 2.31671 26.6833C2.3056 26.45 2.36671 26.2222 2.50005 26L14.8334 4.66667C14.9667 4.44444 15.1389 4.27778 15.35 4.16667C15.5612 4.05556 15.7778 4 16 4C16.2223 4 16.4389 4.05556 16.65 4.16667C16.8612 4.27778 17.0334 4.44444 17.1667 4.66667L29.5 26C29.6334 26.2222 29.6945 26.45 29.6834 26.6833C29.6723 26.9167 29.6112 27.1333 29.5 27.3333C29.3889 27.5333 29.2334 27.6944 29.0334 27.8167C28.8334 27.9389 28.6112 28 28.3667 28H3.63338ZM5.93338 25.3333H26.0667L16 8L5.93338 25.3333ZM16 24C16.3778 24 16.6945 23.8722 16.95 23.6167C17.2056 23.3611 17.3334 23.0444 17.3334 22.6667C17.3334 22.2889 17.2056 21.9722 16.95 21.7167C16.6945 21.4611 16.3778 21.3333 16 21.3333C15.6223 21.3333 15.3056 21.4611 15.05 21.7167C14.7945 21.9722 14.6667 22.2889 14.6667 22.6667C14.6667 23.0444 14.7945 23.3611 15.05 23.6167C15.3056 23.8722 15.6223 24 16 24ZM16 20C16.3778 20 16.6945 19.8722 16.95 19.6167C17.2056 19.3611 17.3334 19.0444 17.3334 18.6667V14.6667C17.3334 14.2889 17.2056 13.9722 16.95 13.7167C16.6945 13.4611 16.3778 13.3333 16 13.3333C15.6223 13.3333 15.3056 13.4611 15.05 13.7167C14.7945 13.9722 14.6667 14.2889 14.6667 14.6667V18.6667C14.6667 19.0444 14.7945 19.3611 15.05 19.6167C15.3056 19.8722 15.6223 20 16 20Z" fill="#FC9E5B"/>
</svg>
