<svg width="32" height="32" viewBox="0 0 21 21" fill="none" xmlns="http://www.w3.org/2000/svg">
<circle cx="10.25" cy="10.25" r="9.75" stroke="white"/>
<g clip-path="url(#clip0_3150_9510)">
<path d="M11.332 7.23242C11.1328 6.99414 10.8477 6.875 10.4766 6.875C9.96875 6.875 9.62305 7.06445 9.43945 7.44336C9.33398 7.66211 9.27148 8.00977 9.25195 8.48633H7.62891C7.65625 7.76367 7.78711 7.17969 8.02148 6.73438C8.4668 5.88672 9.25781 5.46289 10.3945 5.46289C11.293 5.46289 12.0078 5.71289 12.5391 6.21289C13.0703 6.70898 13.3359 7.36719 13.3359 8.1875C13.3359 8.81641 13.1484 9.375 12.7734 9.86328C12.5273 10.1875 12.123 10.5488 11.5605 10.9473L10.8926 11.4219C10.4746 11.7188 10.1875 11.9336 10.0312 12.0664C9.87891 12.1992 9.75 12.3535 9.64453 12.5293H13.3535V14H7.53516C7.55078 13.3906 7.68164 12.834 7.92773 12.3301C8.16602 11.7637 8.72852 11.1641 9.61523 10.5312C10.3848 9.98047 10.8828 9.58594 11.1094 9.34766C11.457 8.97656 11.6309 8.57031 11.6309 8.12891C11.6309 7.76953 11.5312 7.4707 11.332 7.23242Z" fill="white"/>
</g>
<defs>
<clipPath id="clip0_3150_9510">
<rect width="7" height="9" fill="white" transform="translate(7 5)"/>
</clipPath>
</defs>
</svg>
