<svg width="33" height="33" viewBox="0 0 33 33" fill="none" xmlns="http://www.w3.org/2000/svg">
<path d="M17.6892 7.87838C17.6892 7.22161 17.1568 6.68919 16.5 6.68919C15.8432 6.68919 15.3108 7.22161 15.3108 7.87838V16.4991L15.0878 16.5L15.0135 16.5V9.81081C15.0135 9.15404 14.4811 8.62162 13.8243 8.62162C13.1676 8.62162 12.6351 9.15404 12.6351 9.81081V16.516C12.469 16.5198 12.3213 16.5244 12.1892 16.5301V11.7432C12.1892 11.0865 11.6568 10.5541 11 10.5541C10.3432 10.5541 9.81081 11.0865 9.81081 11.7432V18.8784C9.81081 18.9575 9.81853 19.0347 9.83326 19.1095C9.81697 19.4471 9.81081 19.8746 9.81081 20.4392C9.81081 21.8216 9.88514 22.773 10.0189 23.2635C10.1378 23.6797 10.4649 24.3041 10.7324 24.6757C11.0149 25.0473 11.5649 25.5527 11.9662 25.7905C12.6779 26.2353 12.7241 26.2365 15.0545 26.2955L15.073 26.2959C17.0649 26.3405 17.6 26.2959 18.2838 26.0878C19.0122 25.85 19.3689 25.5527 21.673 23.2784C23.1 21.8811 24.3486 20.5581 24.4676 20.3203C24.5865 20.0973 24.6757 19.7405 24.6757 19.5027C24.6757 19.2797 24.5865 18.9676 24.4824 18.8041C24.3635 18.6405 24.0959 18.4622 23.8878 18.3878C23.6649 18.3284 23.3081 18.3581 23.0703 18.4473C22.8473 18.5365 22.2527 18.9973 21.7324 19.4878L20.8108 20.3649C20.0676 19.9784 19.3689 19.8297 18.8041 19.8C17.9568 19.7405 17.6446 19.7851 17.1243 20.0527C16.7824 20.2162 16.3662 20.5878 16.2176 20.8405C16.0689 21.1081 15.8905 21.5541 15.8459 21.8068C15.7865 22.1041 15.6676 22.2973 15.5338 22.2973C15.3554 22.2973 15.3257 22.1784 15.4 21.8068C15.4595 21.5541 15.6378 21.0635 15.8311 20.7365C16.0095 20.4095 16.4257 19.9784 16.7378 19.7703C17.2432 19.4432 17.4662 19.3986 18.5811 19.4135C19.2797 19.4284 19.9784 19.4581 20.1419 19.4878C20.4095 19.5473 20.4392 19.473 20.4392 18.7743C20.4392 18.7008 20.4375 18.6306 20.434 18.5635C20.4854 18.4306 20.5135 18.2862 20.5135 18.1351V9.81081C20.5135 9.15404 19.9811 8.62162 19.3243 8.62162C18.6676 8.62162 18.1351 9.15404 18.1351 9.81081V16.5203C18.0057 16.514 17.8583 16.5092 17.6892 16.5056V7.87838Z" fill="#D20A00"/>
<path fill-rule="evenodd" clip-rule="evenodd" d="M16.5 33C25.6127 33 33 25.6127 33 16.5C33 7.3873 25.6127 0 16.5 0C7.3873 0 0 7.3873 0 16.5C0 25.6127 7.3873 33 16.5 33ZM29.8784 16.5C29.8784 23.8887 23.8887 29.8784 16.5 29.8784C9.11133 29.8784 3.12162 23.8887 3.12162 16.5C3.12162 9.11133 9.11133 3.12162 16.5 3.12162C23.8887 3.12162 29.8784 9.11133 29.8784 16.5Z" fill="#D20A00"/>
</svg>
