<svg width="84" height="50" viewBox="0 0 84 50" fill="none" xmlns="http://www.w3.org/2000/svg">
<rect x="5" y="5" width="78" height="40" rx="20" fill="black" stroke="#00E8BF" stroke-width="2"/>
<g filter="url(#filter0_d_5343_49515)">
<circle cx="24.9996" cy="25.0006" r="16.2857" fill="#00E8BF"/>
</g>
<path d="M24.6502 25.5111C24.6784 25.4944 24.7286 25.4726 24.7599 25.4621C24.7955 25.4517 24.8529 25.4444 24.9115 25.4434C24.9773 25.4434 25.0254 25.4496 25.0734 25.4632C25.111 25.4746 25.1654 25.4986 25.1936 25.5174C25.2228 25.5351 25.2636 25.5664 25.2866 25.5872C25.3085 25.6091 25.3451 25.654 25.3681 25.6884C25.39 25.7228 25.4182 25.7811 25.4297 25.8187C25.4496 25.8844 25.4496 25.9229 25.4496 27.4607C25.4496 29.0016 25.4496 29.036 25.4297 29.1027C25.4182 29.1403 25.3942 29.1934 25.3754 29.2226C25.3576 29.2508 25.3263 29.2925 25.3054 29.3154C25.2834 29.3373 25.2385 29.3738 25.204 29.3967C25.1695 29.4186 25.111 29.4468 25.0734 29.4583C25.0285 29.4718 24.9752 29.4781 24.9167 29.4781C24.8582 29.4781 24.8049 29.4718 24.7599 29.4583C24.7223 29.4468 24.6638 29.4186 24.6293 29.3967C24.5949 29.3738 24.5499 29.3373 24.528 29.3154C24.5071 29.2925 24.4757 29.2508 24.458 29.2226C24.4392 29.1934 24.4151 29.1403 24.4036 29.1027C24.3838 29.036 24.3838 29.0016 24.3838 27.4607C24.3838 25.9229 24.3838 25.8844 24.4036 25.8187C24.4151 25.7811 24.4433 25.7228 24.4653 25.6884C24.4872 25.654 24.5269 25.607 24.552 25.5831C24.5771 25.5601 24.621 25.5278 24.6502 25.5111Z" fill="white"/>
<path fill-rule="evenodd" clip-rule="evenodd" d="M24.8993 22.2852C25.0236 22.2852 25.1574 22.2883 25.1971 22.2945C25.2357 22.2998 25.3214 22.3112 25.3872 22.3206C25.4531 22.33 25.5565 22.3488 25.6171 22.3623C25.6777 22.3759 25.7749 22.4019 25.8344 22.4196C25.8929 22.4363 25.9912 22.4697 26.0539 22.4937C26.1155 22.5166 26.2263 22.5656 26.3015 22.601C26.3767 22.6365 26.4864 22.6959 26.547 22.7324C26.6076 22.7679 26.7038 22.8314 26.7612 22.8721C26.8187 22.9128 26.92 22.991 26.9859 23.0462C27.0517 23.1015 27.1489 23.1911 27.2011 23.2443C27.2534 23.2985 27.3307 23.384 27.3735 23.4361C27.4164 23.4882 27.4843 23.5769 27.525 23.6342C27.5658 23.6915 27.6295 23.7875 27.665 23.8479C27.7016 23.9084 27.7612 24.0179 27.7967 24.0929C27.8322 24.168 27.8813 24.2785 27.9043 24.341C27.9283 24.4025 27.9618 24.5005 27.9785 24.5589C27.9963 24.6184 28.0224 24.7153 28.036 24.7758C28.0495 24.8362 28.0684 24.9342 28.0767 24.9947C28.0861 25.0552 28.0987 25.1657 28.1049 25.2397C28.1122 25.3179 28.1143 25.4545 28.1112 25.5629C28.1081 25.6661 28.0976 25.8068 28.0882 25.8757C28.0788 25.9445 28.061 26.055 28.0475 26.1206C28.0339 26.1863 28.0078 26.2906 27.99 26.3531C27.9722 26.4146 27.9357 26.5241 27.9085 26.5971C27.8813 26.6711 27.8218 26.8056 27.7747 26.8973C27.7288 26.9891 27.6546 27.1204 27.6107 27.1892C27.5668 27.2581 27.4895 27.3654 27.4404 27.429C27.3913 27.4926 27.3025 27.5948 27.244 27.6584C27.1844 27.7209 27.0841 27.8179 27.0214 27.8711C26.9587 27.9253 26.8626 28.0035 26.8082 28.0441C26.7539 28.0848 26.6641 28.1453 26.6097 28.1786C26.5554 28.213 26.454 28.2704 26.3851 28.3058C26.3161 28.3412 26.2148 28.3892 26.1604 28.4121C26.1061 28.4351 26.0507 28.457 26.0141 28.4664L26.0131 27.4916L26.1145 27.429C26.1688 27.3946 26.2555 27.3362 26.3046 27.2987C26.3548 27.2612 26.4415 27.1861 26.499 27.1319C26.5564 27.0777 26.6379 26.9901 26.6818 26.939C26.7247 26.888 26.7968 26.7889 26.8417 26.7201C26.8866 26.6513 26.9493 26.5439 26.9796 26.4803C27.0099 26.4167 27.0517 26.3208 27.0726 26.2666C27.0925 26.2124 27.1238 26.1113 27.1416 26.0425C27.1593 25.9736 27.1813 25.8704 27.1896 25.8131C27.198 25.7558 27.2084 25.6432 27.2116 25.5629C27.2157 25.4764 27.2137 25.3617 27.2063 25.2814C27.199 25.2074 27.1813 25.0875 27.1666 25.0156C27.1531 24.9436 27.1228 24.831 27.1008 24.7654C27.0799 24.6997 27.0381 24.5944 27.0099 24.5308C26.9817 24.4672 26.9284 24.3671 26.8918 24.3066C26.8563 24.2462 26.7926 24.1523 26.7529 24.0981C26.7121 24.0439 26.6149 23.9355 26.5376 23.8573C26.4593 23.7802 26.3506 23.6832 26.2963 23.6425C26.2419 23.6029 26.1479 23.5393 26.0873 23.5039C26.0267 23.4674 25.9264 23.4142 25.8626 23.3861C25.7999 23.3579 25.6934 23.3162 25.6275 23.2954C25.5617 23.2735 25.4468 23.2432 25.3716 23.2287C25.2963 23.213 25.1657 23.1953 25.079 23.189C24.9578 23.1797 24.8846 23.1797 24.7551 23.189C24.6631 23.1963 24.5315 23.2141 24.4625 23.2276C24.3936 23.2422 24.2901 23.2683 24.2326 23.286C24.1752 23.3037 24.0738 23.3412 24.008 23.3704C23.9422 23.3986 23.8366 23.4518 23.7729 23.4882C23.7102 23.5247 23.6099 23.5904 23.5514 23.6332C23.4918 23.6769 23.3915 23.7624 23.3278 23.825C23.263 23.8865 23.1711 23.9855 23.123 24.046C23.0749 24.1065 23.006 24.2024 22.9704 24.2597C22.9349 24.3171 22.8816 24.413 22.8524 24.4734C22.8221 24.5339 22.7803 24.6298 22.7594 24.6872C22.7385 24.7445 22.7071 24.8425 22.6915 24.9061C22.6748 24.9697 22.6539 25.0719 22.6445 25.1355C22.635 25.199 22.6246 25.3158 22.6215 25.3961C22.6183 25.4805 22.6204 25.5973 22.6277 25.6724C22.635 25.7443 22.6518 25.859 22.6653 25.9278C22.6789 25.9966 22.7092 26.1092 22.7312 26.178C22.7542 26.2468 22.796 26.3542 22.8252 26.4178C22.8534 26.4814 22.8984 26.5679 22.9234 26.6106C22.9485 26.6534 22.983 26.7097 22.9997 26.7357C23.0164 26.7618 23.0582 26.8202 23.0927 26.8661C23.1272 26.9119 23.2191 27.0131 23.2964 27.0912C23.3748 27.1684 23.4793 27.2622 23.5295 27.2998C23.5786 27.3362 23.6653 27.3946 23.821 27.4916L23.8199 28.4664L23.7969 28.4601C23.7834 28.457 23.728 28.4351 23.6736 28.4121C23.6193 28.3892 23.518 28.3412 23.449 28.3058C23.38 28.2704 23.2787 28.213 23.2244 28.1786C23.17 28.1453 23.0802 28.0848 23.0258 28.0441C22.9715 28.0035 22.8754 27.9253 22.8127 27.8711C22.75 27.8179 22.6497 27.7209 22.5901 27.6584C22.5316 27.5948 22.4428 27.4926 22.3937 27.429C22.3446 27.3654 22.2673 27.2581 22.2234 27.1892C22.1795 27.1204 22.1053 26.9891 22.0593 26.8973C22.0123 26.8056 21.9527 26.6711 21.9256 26.5981C21.8984 26.5241 21.8618 26.4146 21.8441 26.3531C21.8263 26.2906 21.8002 26.1863 21.7866 26.1206C21.773 26.055 21.7553 25.9445 21.7459 25.8757C21.7365 25.8068 21.726 25.6661 21.7229 25.5629C21.7197 25.4545 21.7218 25.3179 21.7291 25.2397C21.7354 25.1657 21.748 25.0552 21.7574 24.9947C21.7657 24.9342 21.7845 24.8362 21.7981 24.7758C21.8117 24.7153 21.8378 24.6184 21.8556 24.56C21.8723 24.5005 21.9057 24.4025 21.9298 24.341C21.9527 24.2785 22.0019 24.168 22.0374 24.0929C22.0729 24.0189 22.1325 23.9084 22.169 23.8479C22.2046 23.7875 22.2683 23.6915 22.309 23.6342C22.3498 23.5769 22.4156 23.4903 22.4564 23.4413C22.4971 23.3923 22.5609 23.3204 22.5985 23.2808C22.635 23.2412 22.7145 23.164 22.7751 23.1098C22.8357 23.0556 22.937 22.9722 22.9997 22.9253C23.0634 22.8773 23.169 22.8054 23.2348 22.7647C23.3006 22.723 23.4041 22.6646 23.4647 22.6334C23.5253 22.6031 23.6329 22.5541 23.705 22.5239C23.7771 22.4947 23.8805 22.4561 23.9349 22.4395C23.9892 22.4217 24.0885 22.3936 24.1543 22.3779C24.2201 22.3613 24.335 22.3383 24.4103 22.3269C24.4855 22.3154 24.5743 22.3018 24.6088 22.2966C24.6433 22.2914 24.7739 22.2862 24.8993 22.2852V22.2852ZM35.4441 23.3162C36.6948 23.3162 36.7199 23.3162 36.7899 23.3371C36.8452 23.3538 36.8724 23.3694 36.9184 23.4121C36.9539 23.4455 36.9894 23.4924 37.0072 23.5299C37.0312 23.5769 37.0396 23.6133 37.0448 23.6759C37.05 23.7457 37.0469 23.7697 37.0281 23.8219C37.0156 23.8563 36.9873 23.9073 36.9664 23.9365C36.9445 23.9657 36.9017 24.0033 36.8703 24.0231C36.839 24.0418 36.7961 24.0616 36.7763 24.0669C36.7533 24.0731 36.328 24.0773 34.5925 24.0773V24.9843L36.4576 24.9895L36.5151 25.0176C36.5506 25.0343 36.5934 25.0687 36.6279 25.1063C36.6613 25.1427 36.6927 25.1897 36.7052 25.2241C36.7209 25.2647 36.7272 25.3054 36.7272 25.3648C36.7272 25.4242 36.7209 25.4649 36.7052 25.5056C36.6927 25.54 36.6613 25.5869 36.6279 25.6234C36.5934 25.6609 36.5506 25.6953 36.4576 25.7401L34.5925 25.7453V26.6523L36.7502 26.6576L36.8097 26.6857C36.8431 26.7024 36.8954 26.7378 36.9246 26.766C36.9549 26.7941 36.9884 26.8327 36.9978 26.8525C37.0072 26.8713 37.0229 26.9057 37.0333 26.9286C37.0469 26.9599 37.05 26.9891 37.0469 27.0485C37.0427 27.1079 37.0344 27.1434 37.0093 27.1945C36.9884 27.2382 36.956 27.281 36.9184 27.3164C36.8724 27.3602 36.8452 27.3759 36.7888 27.3925C36.7199 27.4134 36.6927 27.4134 35.4493 27.4134C34.2059 27.4134 34.1787 27.4134 34.1087 27.3925C34.0534 27.3759 34.0262 27.3602 33.9802 27.3164C33.9426 27.282 33.9102 27.2382 33.8559 27.1267V23.6029L33.8893 23.5352C33.9102 23.4914 33.9426 23.4476 33.9802 23.4121C34.0241 23.3715 34.0544 23.3527 34.1035 23.3381C34.1672 23.3183 34.2122 23.3173 35.4441 23.3162ZM14.2385 23.3517C15.252 23.3538 15.2802 23.3548 15.3722 23.3756C15.4234 23.3871 15.4965 23.408 15.5341 23.4205C15.5717 23.434 15.6418 23.4632 15.6909 23.4851C15.74 23.5081 15.8173 23.5508 15.8633 23.5821C15.9092 23.6123 15.9792 23.6676 16.019 23.703C16.0587 23.7395 16.1213 23.8073 16.1579 23.8531C16.1945 23.899 16.2478 23.9834 16.276 24.0408C16.3052 24.0981 16.3408 24.192 16.3554 24.2493C16.3794 24.3379 16.3836 24.3765 16.3847 24.5047C16.3847 24.6309 16.3805 24.6715 16.3606 24.7497C16.347 24.8008 16.3209 24.879 16.3032 24.9217C16.2843 24.9645 16.2467 25.0354 16.2185 25.0781C16.1893 25.1209 16.1663 25.1615 16.1663 25.1678C16.1663 25.174 16.2039 25.2095 16.2488 25.246C16.2948 25.2824 16.3585 25.3419 16.3899 25.3784C16.4223 25.4149 16.4693 25.4732 16.4944 25.5087C16.5194 25.5441 16.5623 25.6202 16.5905 25.6776C16.6187 25.7349 16.6542 25.8287 16.6689 25.8861C16.6939 25.9789 16.6971 26.0081 16.6971 26.1623C16.6971 26.3166 16.6939 26.3458 16.6689 26.4386C16.6542 26.496 16.6208 26.5856 16.5968 26.6367C16.5717 26.6878 16.5268 26.7681 16.4954 26.8139C16.4641 26.8598 16.3961 26.9401 16.3439 26.9912C16.2906 27.0443 16.2049 27.1152 16.1454 27.1548C16.0879 27.1934 16.0012 27.2435 15.9521 27.2664C15.903 27.2893 15.8277 27.3196 15.7849 27.3342C15.7421 27.3477 15.6595 27.3706 15.4976 27.4071L14.3378 27.4103C13.5771 27.4124 13.1592 27.4103 13.1226 27.403C13.0933 27.3978 13.0432 27.3811 13.0129 27.3675C12.9836 27.3529 12.9355 27.3216 12.9073 27.2966C12.8739 27.2664 12.8446 27.2278 12.7861 27.1058L12.7872 23.655L12.8164 23.5925C12.8352 23.5529 12.8697 23.5081 12.9084 23.4726C12.9481 23.434 12.9899 23.4059 13.0317 23.3902C13.0662 23.3767 13.1174 23.3621 13.1466 23.3579C13.1748 23.3538 13.667 23.3506 14.2385 23.3517ZM13.6617 24.512L13.6638 24.9113C15.0274 24.9113 15.1517 24.9092 15.2019 24.8957C15.2353 24.8873 15.2844 24.8686 15.3116 24.855C15.3398 24.8415 15.3826 24.8112 15.4087 24.7893C15.4349 24.7664 15.4725 24.7174 15.4923 24.6809C15.5279 24.6163 15.5289 24.61 15.5289 24.5047C15.5289 24.3994 15.5279 24.3932 15.4923 24.3285C15.4725 24.292 15.437 24.2451 15.414 24.2243C15.391 24.2024 15.3513 24.1732 15.3252 24.1576C15.299 24.143 15.2499 24.1231 15.2154 24.1138C15.1611 24.1002 15.0493 24.0981 14.4151 24.0981C14.0097 24.0981 13.6743 24.1013 13.669 24.1054C13.6638 24.1086 13.6607 24.292 13.6617 24.512ZM13.6638 26.6628L15.4244 26.6576C15.53 26.62 15.5926 26.5877 15.6334 26.5606C15.6783 26.5304 15.7253 26.4876 15.7546 26.449C15.7807 26.4146 15.8131 26.3583 15.8267 26.3239C15.8465 26.2739 15.8518 26.2426 15.8518 26.1623C15.8518 26.0821 15.8465 26.0508 15.8267 26.0008C15.8131 25.9664 15.7807 25.9101 15.7546 25.8757C15.7253 25.8371 15.6783 25.7943 15.6334 25.7641C15.5926 25.737 15.53 25.7047 15.4923 25.6911L15.4244 25.6671L13.6649 25.6609L13.6638 26.6628ZM19.2173 23.3517C19.2674 23.3538 19.3082 23.3631 19.3479 23.3809C19.3792 23.3944 19.4231 23.4205 19.4451 23.4372C19.467 23.4538 19.5004 23.4914 19.5193 23.5195C19.5381 23.5487 19.9414 24.316 20.4147 25.2241C20.8891 26.1332 21.283 26.8932 21.2913 26.913C21.3008 26.9359 21.306 26.9839 21.306 27.0381C21.306 27.1079 21.3008 27.1382 21.2819 27.1788C21.2684 27.208 21.2433 27.2497 21.2245 27.2716C21.2067 27.2945 21.1733 27.3258 21.1503 27.3415C21.1273 27.3571 21.0772 27.38 21.0406 27.3925C20.9842 27.4124 20.958 27.4155 20.8943 27.4103C20.8389 27.4061 20.7971 27.3946 20.7532 27.3738C20.7188 27.3571 20.6686 27.3227 20.6435 27.2966C20.608 27.2612 20.561 27.1809 20.3039 26.6847L18.0888 26.6888L17.9426 26.9693C17.8328 27.1778 17.7837 27.2612 17.7493 27.2966C17.7231 27.3227 17.674 27.3581 17.6395 27.3738C17.5957 27.3946 17.5528 27.4061 17.4985 27.4103C17.4337 27.4155 17.4076 27.4124 17.3522 27.3925C17.3146 27.38 17.2613 27.3529 17.2331 27.3321C17.2049 27.3112 17.1673 27.2727 17.1495 27.2466C17.1317 27.2216 17.1098 27.1726 17.0993 27.1402C17.0889 27.1069 17.0805 27.06 17.0805 27.036C17.0795 27.011 17.0878 26.9661 17.0973 26.9338C17.1067 26.9025 17.4953 26.1478 17.9603 25.2553C18.4253 24.364 18.8213 23.6071 18.839 23.5727C18.8568 23.5383 18.8923 23.4903 18.9164 23.4663C18.9414 23.4413 18.9843 23.409 19.0135 23.3944C19.0418 23.3809 19.0835 23.3642 19.1044 23.359C19.1264 23.3527 19.1765 23.3496 19.2173 23.3517ZM18.7983 25.2658L18.4618 25.9069C19.0146 25.9111 19.3312 25.9111 19.5213 25.9101L19.8661 25.9069C19.3312 24.8863 19.1724 24.5871 19.1692 24.5829C19.1661 24.5798 19.1567 24.5871 19.1483 24.6006C19.141 24.6142 18.9832 24.9134 18.7983 25.2658ZM29.3337 23.3485C29.364 23.3485 29.4162 23.3558 29.4486 23.3663C29.4821 23.3767 29.5301 23.3996 29.5562 23.4174C29.5845 23.4361 29.6367 23.4935 29.6879 23.5623C29.7349 23.6248 30.0348 24.0324 30.3545 24.4682C30.6743 24.904 30.9396 25.2616 30.9438 25.2626C30.947 25.2637 31.1632 24.9853 31.4224 24.6423C31.6815 24.3004 31.9918 23.8917 32.112 23.7343C32.2844 23.5081 32.3408 23.4413 32.3826 23.4142C32.4108 23.3955 32.4631 23.3725 32.4975 23.3631C32.5425 23.3496 32.578 23.3465 32.6282 23.3517C32.6647 23.3558 32.7191 23.3694 32.7483 23.3819C32.7765 23.3955 32.8225 23.4267 32.8507 23.4528C32.881 23.4809 32.9144 23.5258 32.9677 23.6342V27.1277L32.9343 27.1955C32.9144 27.2362 32.881 27.281 32.8507 27.3091C32.8225 27.3342 32.7744 27.3675 32.7431 27.3821C32.695 27.404 32.6699 27.4082 32.5916 27.4082C32.509 27.4082 32.4892 27.404 32.4349 27.3769C32.4004 27.3602 32.3523 27.3269 32.3272 27.3018C32.3032 27.2779 32.2729 27.2372 32.2604 27.2132C32.2478 27.1882 32.2332 27.1548 32.2269 27.1371C32.2196 27.1163 32.2133 26.7503 32.205 24.8654L31.7191 25.5066C31.4516 25.8579 31.2134 26.1655 31.1904 26.1884C31.1674 26.2113 31.1256 26.2426 31.0964 26.2562C31.0515 26.2791 31.0316 26.2822 30.9459 26.2822C30.8676 26.2812 30.8362 26.277 30.7996 26.2593C30.7735 26.2478 30.7328 26.2239 30.7077 26.2051C30.6763 26.1822 30.5269 25.9862 29.7286 24.8978L29.7224 26.0018C29.7192 26.7545 29.714 27.1163 29.7057 27.1371C29.6994 27.1548 29.6848 27.1882 29.6722 27.2132C29.6597 27.2372 29.6304 27.2779 29.6054 27.3018C29.5813 27.3269 29.5333 27.3602 29.4988 27.3769C29.4434 27.404 29.4235 27.4082 29.341 27.4082C29.2564 27.4082 29.2407 27.4051 29.179 27.3759C29.1383 27.3561 29.0934 27.3227 29.0652 27.2925C29.0401 27.2643 29.0066 27.2164 28.9659 27.1267V23.6342L28.992 23.5769C29.0066 23.5456 29.038 23.4997 29.0599 23.4747C29.0829 23.4497 29.1226 23.4163 29.1487 23.4017C29.1738 23.3871 29.2146 23.3694 29.2376 23.3621C29.2605 23.3548 29.3034 23.3485 29.3337 23.3485Z" fill="black"/>
<path d="M49.4287 30.8809L49.4287 35.8571L69.3335 35.8571L69.3335 30.8809" stroke="white" stroke-width="2" stroke-linecap="round" stroke-linejoin="round"/>
<path d="M65.0353 18.8166C65.0353 19.5808 64.9093 20.2562 64.6753 20.8427C64.4413 21.4291 64.0813 21.909 63.6492 22.3177C63.1992 22.7087 62.6772 23.0109 62.0652 23.2064C61.4532 23.4018 60.7871 23.5085 60.0491 23.5085H56.089V29.0711H53.8389V14.1426H60.1751C60.8591 14.1426 61.5072 14.2492 62.1012 14.4447C62.6952 14.6402 63.2172 14.9423 63.6492 15.3333C64.0813 15.7243 64.4233 16.2041 64.6573 16.7906C64.9093 17.3771 65.0173 18.0524 65.0173 18.8166H65.0353ZM62.7312 18.8166C62.7312 17.9991 62.4972 17.3593 62.0292 16.915C61.5612 16.4707 60.9311 16.2575 60.1391 16.2575H56.089V21.3936H60.1391C61.0031 21.3936 61.6512 21.1626 62.0832 20.7183C62.5152 20.2562 62.7312 19.6342 62.7312 18.8166Z" fill="white" stroke="white" stroke-width="0.5"/>
<defs>
<filter id="filter0_d_5343_49515" x="0.713867" y="0.714844" width="48.5713" height="48.5723" filterUnits="userSpaceOnUse" color-interpolation-filters="sRGB">
<feFlood flood-opacity="0" result="BackgroundImageFix"/>
<feColorMatrix in="SourceAlpha" type="matrix" values="0 0 0 0 0 0 0 0 0 0 0 0 0 0 0 0 0 0 127 0" result="hardAlpha"/>
<feOffset/>
<feGaussianBlur stdDeviation="4"/>
<feComposite in2="hardAlpha" operator="out"/>
<feColorMatrix type="matrix" values="0 0 0 0 0.156863 0 0 0 0 0.235294 0 0 0 0 0.654902 0 0 0 0.1 0"/>
<feBlend mode="normal" in2="BackgroundImageFix" result="effect1_dropShadow_5343_49515"/>
<feBlend mode="normal" in="SourceGraphic" in2="effect1_dropShadow_5343_49515" result="shape"/>
</filter>
</defs>
</svg>
