<svg width="18" height="18" viewBox="0 0 14 14" fill="none" xmlns="http://www.w3.org/2000/svg">
<path fill-rule="evenodd" clip-rule="evenodd" d="M6.99998 1.66634C4.05446 1.66634 1.66665 4.05416 1.66665 6.99967C1.66665 9.94519 4.05446 12.333 6.99998 12.333C9.9455 12.333 12.3333 9.94519 12.3333 6.99967C12.3333 4.05416 9.9455 1.66634 6.99998 1.66634ZM0.333313 6.99967C0.333313 3.31778 3.31808 0.333008 6.99998 0.333008C10.6819 0.333008 13.6666 3.31778 13.6666 6.99967C13.6666 10.6816 10.6819 13.6663 6.99998 13.6663C3.31808 13.6663 0.333313 10.6816 0.333313 6.99967Z" fill="white"/>
<path fill-rule="evenodd" clip-rule="evenodd" d="M6.2706 4.22828C6.11279 4.35452 5.99996 4.5396 5.99996 4.8327C5.99996 5.20089 5.70148 5.49936 5.33329 5.49936C4.9651 5.49936 4.66662 5.20088 4.66663 4.83269C4.66663 4.12581 4.97047 3.56089 5.43766 3.18712C5.88791 2.82692 6.45899 2.66602 6.99995 2.66602C7.54091 2.66601 8.112 2.82688 8.56226 3.18709C9.02947 3.56086 9.33329 4.12579 9.33329 4.83269C9.33329 5.42479 9.20929 5.89364 8.95296 6.26104C8.69933 6.62459 8.36812 6.81066 8.13142 6.929C8.05089 6.96927 7.9873 7.00007 7.93596 7.02494C7.80644 7.08767 7.75496 7.1126 7.70634 7.15636C7.70634 7.15636 7.70631 7.15637 7.70626 7.15639C7.70422 7.15712 7.66663 7.17044 7.66663 7.33268V7.99935C7.66663 8.36754 7.36815 8.66602 6.99996 8.66602C6.63177 8.66602 6.33329 8.36754 6.33329 7.99935V7.33268C6.33329 6.83237 6.50211 6.44634 6.81441 6.16528C7.02022 5.98006 7.29582 5.84998 7.45726 5.77378C7.4877 5.75942 7.51407 5.74697 7.53516 5.73642C7.71514 5.64644 7.80059 5.58252 7.85946 5.49814C7.91563 5.41763 7.99996 5.24062 7.99996 4.83269C7.99996 4.53956 7.88712 4.35448 7.72933 4.22825C7.55459 4.08846 7.29234 3.99934 6.99997 3.99935C6.7076 3.99935 6.44535 4.08847 6.2706 4.22828Z" fill="white"/>
<path d="M7.66665 9.99967C7.66665 10.3679 7.36817 10.6663 6.99998 10.6663C6.63179 10.6663 6.33331 10.3679 6.33331 9.99967C6.33331 9.63148 6.63179 9.33301 6.99998 9.33301C7.36817 9.33301 7.66665 9.63148 7.66665 9.99967Z" fill="white"/>
<path fill-rule="evenodd" clip-rule="evenodd" d="M7 9.66667C6.81591 9.66667 6.66667 9.81591 6.66667 10C6.66667 10.1841 6.81591 10.3333 7 10.3333C7.18409 10.3333 7.33333 10.1841 7.33333 10C7.33333 9.81591 7.18409 9.66667 7 9.66667ZM6 10C6 9.44772 6.44772 9 7 9C7.55228 9 8 9.44772 8 10C8 10.5523 7.55228 11 7 11C6.44772 11 6 10.5523 6 10Z" fill="white"/>
</svg>
