<svg width="33" height="33" viewBox="0 0 33 33" fill="none" xmlns="http://www.w3.org/2000/svg">
<path fill-rule="evenodd" clip-rule="evenodd" d="M16.5 33C25.6127 33 33 25.6127 33 16.5C33 7.3873 25.6127 0 16.5 0C7.3873 0 0 7.3873 0 16.5C0 25.6127 7.3873 33 16.5 33ZM6.8265 8.1544C4.72458 10.6315 3.59349 14.3144 4.5187 19.2441H16.6365C16.966 19.2441 17.2331 19.5112 17.2331 19.8407C17.2331 20.1702 16.966 20.4373 16.6365 20.4373H4.02924C3.73679 20.4373 3.49348 20.2269 3.44245 19.9492C2.2938 14.4881 3.47389 10.2612 5.91663 7.38235C8.34965 4.51501 11.9777 3.05384 15.5999 3.00146C19.2226 2.94907 22.8915 4.30522 25.4039 7.14009C27.9258 9.98565 29.2199 14.2493 28.2246 19.8827C28.2165 19.9337 28.202 19.9826 28.1818 20.0284C28.1107 20.1907 27.9711 20.3112 27.8051 20.3606C27.7473 20.3778 27.6863 20.3864 27.6238 20.3851H26.1827C25.8532 20.3851 25.5861 20.1179 25.5861 19.7884C25.5861 19.4589 25.8532 19.1918 26.1827 19.1918H27.1296C27.9169 14.0978 26.6808 10.3799 24.5109 7.93155C22.2607 5.39259 18.9434 4.14652 15.6172 4.19462C12.2905 4.24272 9.00691 5.58475 6.8265 8.1544ZM12.5456 15.0596L13.7963 15.612C13.7875 15.6886 13.783 15.7665 13.783 15.8454C13.783 16.9629 14.6889 17.8688 15.8064 17.8688C16.9238 17.8688 17.8297 16.9629 17.8297 15.8454C17.8297 14.7279 16.9238 13.822 15.8064 13.822C15.1958 13.822 14.6484 14.0924 14.2774 14.5201L13.0251 13.9669C13.3249 13.5674 13.737 13.2432 14.2157 13.0032C15.2457 12.4869 16.4545 12.4304 17.2682 12.8068C17.4357 12.962 17.6851 13.0135 17.9086 12.918L23.9787 10.3239C24.2689 10.1999 24.4102 9.87317 24.308 9.57963C24.2934 9.48565 24.2561 9.39381 24.1949 9.31253C21.7356 6.04742 17.1868 4.7324 13.199 5.66968C9.15471 6.62022 5.66592 9.88587 5.35302 15.7355C5.35174 15.7595 5.35189 15.7833 5.35341 15.8067C5.35259 15.8195 5.35218 15.8324 5.35218 15.8454C5.35218 16.1749 5.6193 16.4421 5.94882 16.4421H11.9152C12.2447 16.4421 12.5119 16.1749 12.5119 15.8454C12.5119 15.8324 12.5114 15.8195 12.5106 15.8067C12.5123 15.7808 12.5123 15.7544 12.5105 15.7277C12.495 15.4939 12.5077 15.271 12.5456 15.0596ZM13.472 6.83131C12.0876 7.15669 10.7708 7.78698 9.66326 8.75062L13.1805 12.2245C13.3422 12.1184 13.5097 12.0223 13.681 11.9365C14.1566 11.698 14.6787 11.5291 15.2097 11.4408V6.58237C14.6257 6.61463 14.0433 6.69702 13.472 6.83131ZM6.58488 15.2488C6.80975 12.8393 7.63724 10.9716 8.82163 9.59655L12.2725 13.0049C12.1421 13.1523 12.0217 13.3094 11.9135 13.476L8.52455 11.9792C8.22312 11.8461 7.87085 11.9825 7.73772 12.2839C7.60459 12.5854 7.74102 12.9376 8.04244 13.0708L11.4308 14.5673C11.3746 14.7843 11.3369 15.0116 11.3203 15.2488H6.58488ZM14.9762 15.8454C14.9762 15.7559 14.9904 15.6696 15.0167 15.5888C15.0309 15.5657 15.0438 15.5413 15.0551 15.5158C15.0666 15.4898 15.076 15.4634 15.0836 15.4369C15.2261 15.1852 15.4964 15.0153 15.8064 15.0153C16.2648 15.0153 16.6365 15.387 16.6365 15.8454C16.6365 16.3039 16.2648 16.6755 15.8064 16.6755C15.3479 16.6755 14.9762 16.3039 14.9762 15.8454ZM16.403 6.58568C18.8629 6.73459 21.2383 7.75754 22.8219 9.52059L17.7194 11.7011C17.3128 11.5205 16.8654 11.417 16.403 11.3827V6.58568ZM21.9487 19.7939C21.9487 19.4626 21.672 19.1939 21.3301 19.1939C20.9887 19.1939 20.712 19.4626 20.712 19.7939V22.196C20.712 22.5274 20.9887 22.7961 21.3301 22.7961C21.672 22.7961 21.9487 22.5274 21.9487 22.196V19.7939ZM21.9487 23.9983C21.9487 24.3296 21.672 24.5988 21.3301 24.5988C20.9887 24.5988 20.712 24.3296 20.712 23.9983C20.712 23.6669 20.9887 23.3977 21.3301 23.3977C21.672 23.3977 21.9487 23.6669 21.9487 23.9983ZM19.6694 16.2704C20.3532 14.9428 22.305 14.9428 22.9888 16.2704L27.1728 24.393C27.7898 25.5909 26.8923 27 25.5129 27H17.1453C15.7659 27 14.8689 25.5909 15.4859 24.393L19.6694 16.2704ZM21.8823 16.8077C21.6546 16.365 21.0042 16.365 20.7759 16.8077L16.5924 24.9303C16.3867 25.3296 16.6855 25.7995 17.1453 25.7995H25.5129C25.9727 25.7995 26.2721 25.3296 26.0664 24.9303L21.8823 16.8077Z" fill="#F6D20C"/>
</svg>
