<svg width="50" height="50" viewBox="0 0 50 50" fill="none" xmlns="http://www.w3.org/2000/svg">
<path d="M8.77089 13.864C8.77089 12.5132 9.3075 11.2177 10.2627 10.2625C11.2179 9.30733 12.5134 8.77072 13.8642 8.77072H16.1793C17.5242 8.76995 18.8142 8.23731 19.7678 7.28903L21.3884 5.66843C21.8617 5.19244 22.4245 4.81471 23.0443 4.55695C23.6641 4.2992 24.3287 4.1665 25 4.1665C25.6713 4.1665 26.3359 4.2992 26.9557 4.55695C27.5755 4.81471 28.1383 5.19244 28.6116 5.66843L30.2322 7.28903C31.1858 8.23731 32.4758 8.76995 33.8207 8.77072H36.1358C37.4866 8.77072 38.7821 9.30733 39.7373 10.2625C40.6925 11.2177 41.2291 12.5132 41.2291 13.864V16.1792C41.2299 17.524 41.7625 18.814 42.7108 19.7676L44.3314 21.3882C44.8074 21.8615 45.1851 22.4243 45.4429 23.0441C45.7006 23.6639 45.8333 24.3286 45.8333 24.9998C45.8333 25.6711 45.7006 26.3358 45.4429 26.9556C45.1851 27.5754 44.8074 28.1381 44.3314 28.6115L42.7108 30.232C41.7625 31.1857 41.2299 32.4756 41.2291 33.8205V36.1356C41.2291 37.4865 40.6925 38.782 39.7373 39.7372C38.7821 40.6923 37.4866 41.229 36.1358 41.229H33.8207C32.4758 41.2297 31.1858 41.7624 30.2322 42.7106L28.6116 44.3312C28.1383 44.8072 27.5755 45.185 26.9557 45.4427C26.3359 45.7005 25.6713 45.8332 25 45.8332C24.3287 45.8332 23.6641 45.7005 23.0443 45.4427C22.4245 45.185 21.8617 44.8072 21.3884 44.3312L19.7678 42.7106C18.8142 41.7624 17.5242 41.2297 16.1793 41.229H13.8642C12.5134 41.229 11.2179 40.6923 10.2627 39.7372C9.3075 38.782 8.77089 37.4865 8.77089 36.1356V33.8205C8.77012 32.4756 8.23748 31.1857 7.2892 30.232L5.6686 28.6115C5.19261 28.1381 4.81487 27.5754 4.55712 26.9556C4.29936 26.3358 4.16667 25.6711 4.16667 24.9998C4.16667 24.3286 4.29936 23.6639 4.55712 23.0441C4.81487 22.4243 5.19261 21.8615 5.6686 21.3882L7.2892 19.7676C8.23748 18.814 8.77012 17.524 8.77089 16.1792V13.864Z" fill="#111111" stroke="white" stroke-opacity="0.3" stroke-linecap="round" stroke-linejoin="round"/>
<path fill-rule="evenodd" clip-rule="evenodd" d="M19.2122 23.8452C20.1281 23.8452 21.0235 23.5736 21.7851 23.0646C22.5467 22.5557 23.1402 21.8324 23.4907 20.9861C23.8411 20.1398 23.9327 19.2086 23.7539 18.3103C23.5751 17.4119 23.1339 16.5868 22.486 15.9392C21.8382 15.2917 21.0129 14.8508 20.1145 14.6723C19.2161 14.4938 18.2849 14.5857 17.4388 14.9365C16.5927 15.2873 15.8695 15.8811 15.3609 16.6429C14.8523 17.4046 14.581 18.3001 14.5813 19.2161C14.5822 20.4438 15.0705 21.621 15.9388 22.489C16.8071 23.3569 17.9844 23.8447 19.2122 23.8452ZM19.2122 18.0579C19.4412 18.0579 19.6651 18.1259 19.8556 18.2531C20.046 18.3804 20.1945 18.5613 20.2821 18.7729C20.3698 18.9845 20.3927 19.2174 20.348 19.442C20.3034 19.6667 20.1931 19.8731 20.0311 20.035C19.8691 20.197 19.6628 20.3073 19.4381 20.352C19.2134 20.3967 18.9806 20.3737 18.769 20.2861C18.5573 20.1984 18.3764 20.05 18.2492 19.8595C18.1219 19.6691 18.054 19.4451 18.054 19.2161C18.054 19.064 18.084 18.9134 18.1422 18.7729C18.2004 18.6324 18.2857 18.5047 18.3932 18.3972C18.5008 18.2896 18.6284 18.2043 18.769 18.1461C18.9095 18.0879 19.0601 18.0579 19.2122 18.0579Z" fill="#DAFC5A"/>
<path fill-rule="evenodd" clip-rule="evenodd" d="M26.1576 30.7888C26.1573 31.7048 26.4286 32.6004 26.9374 33.3622C27.4461 34.124 28.1693 34.7178 29.0155 35.0685C29.8618 35.4193 30.793 35.5111 31.6915 35.3325C32.59 35.1539 33.4153 34.7128 34.063 34.065C34.7107 33.4173 35.1518 32.592 35.3305 31.6935C35.5091 30.7951 35.4172 29.8638 35.0665 29.0176C34.7158 28.1713 34.122 27.4481 33.3602 26.9394C32.5984 26.4307 31.7028 26.1593 30.7868 26.1597C29.5593 26.1606 28.3824 26.6486 27.5145 27.5165C26.6466 28.3845 26.1586 29.5614 26.1576 30.7888ZM31.9449 30.7888C31.9452 31.0179 31.8776 31.242 31.7506 31.4327C31.6235 31.6234 31.4428 31.7721 31.2312 31.86C31.0196 31.9479 30.7867 31.9711 30.5619 31.9266C30.3371 31.8821 30.1306 31.772 29.9684 31.6101C29.8063 31.4482 29.6958 31.2418 29.651 31.0171C29.6062 30.7924 29.629 30.5594 29.7166 30.3477C29.8042 30.136 29.9527 29.955 30.1431 29.8277C30.3336 29.7003 30.5576 29.6324 30.7868 29.6324C31.0936 29.6324 31.3879 29.7542 31.6051 29.971C31.8222 30.1878 31.9444 30.4819 31.9449 30.7888Z" fill="#DAFC5A"/>
<path fill-rule="evenodd" clip-rule="evenodd" d="M18.2489 35.1283C18.4386 35.2548 18.6514 35.3428 18.8751 35.3871C19.0988 35.4315 19.329 35.4313 19.5527 35.3866C19.7763 35.342 19.989 35.2537 20.1785 35.1268C20.368 35 20.5307 34.837 20.6572 34.6473L32.2317 17.2837C32.3583 17.094 32.4462 16.8812 32.4905 16.6575C32.5349 16.4338 32.5347 16.2036 32.49 15.98C32.4454 15.7563 32.3571 15.5437 32.2302 15.3542C32.1034 15.1647 31.9405 15.002 31.7508 14.8754C31.561 14.7489 31.3483 14.6609 31.1246 14.6166C30.9009 14.5723 30.6706 14.5725 30.447 14.6171C30.2233 14.6618 30.0107 14.7501 29.8212 14.8769C29.6317 15.0037 29.469 15.1667 29.3424 15.3564L17.7679 32.7199C17.6413 32.9096 17.5533 33.1224 17.509 33.3461C17.4647 33.5698 17.4649 33.8001 17.5095 34.0237C17.5542 34.2474 17.6425 34.46 17.7693 34.6495C17.8962 34.839 18.0591 35.0017 18.2489 35.1283Z" fill="#DAFC5A"/>
</svg>
